<svg xmlns="http://www.w3.org/2000/svg" xmlns:xlink="http://www.w3.org/1999/xlink" width="500" zoomAndPan="magnify" viewBox="0 0 375 374.999991" height="500" preserveAspectRatio="xMidYMid meet" version="1.0"><defs><g/><clipPath id="f975d301c8"><path d="M 89.550781 217.042969 L 128.242188 217.042969 L 128.242188 218.292969 L 89.550781 218.292969 Z M 89.550781 217.042969 " clip-rule="nonzero"/></clipPath><clipPath id="6b9518bb85"><path d="M 127.613281 217.042969 L 90.175781 217.042969 C 89.832031 217.042969 89.550781 217.324219 89.550781 217.667969 C 89.550781 218.011719 89.832031 218.292969 90.175781 218.292969 L 127.613281 218.292969 C 127.957031 218.292969 128.238281 218.011719 128.238281 217.667969 C 128.238281 217.324219 127.957031 217.042969 127.613281 217.042969 " clip-rule="nonzero"/></clipPath><clipPath id="91b0bcf063"><path d="M 135.921875 163.929688 L 239.421875 163.929688 L 239.421875 267.429688 L 135.921875 267.429688 Z M 135.921875 163.929688 " clip-rule="nonzero"/></clipPath><clipPath id="57d4ac1240"><path d="M 65.015625 144 L 112 144 L 112 193.539062 L 65.015625 193.539062 Z M 65.015625 144 " clip-rule="nonzero"/></clipPath><clipPath id="290a6dc068"><path d="M 263 144 L 310.265625 144 L 310.265625 193.539062 L 263 193.539062 Z M 263 144 " clip-rule="nonzero"/></clipPath><clipPath id="c14b74b0ad"><path d="M 77 106.539062 L 298 106.539062 L 298 177 L 77 177 Z M 77 106.539062 " clip-rule="nonzero"/></clipPath><clipPath id="ebc5033523"><path d="M 180.832031 85.054688 L 194.332031 85.054688 L 194.332031 97.804688 L 180.832031 97.804688 Z M 180.832031 85.054688 " clip-rule="nonzero"/></clipPath></defs><g clip-path="url(#f975d301c8)"><g clip-path="url(#6b9518bb85)"><path fill="#999999" d="M 89.550781 217.042969 L 128.242188 217.042969 L 128.242188 218.292969 L 89.550781 218.292969 Z M 89.550781 217.042969 " fill-opacity="1" fill-rule="nonzero"/></g></g><g clip-path="url(#91b0bcf063)"><path fill="#999999" d="M 187.667969 267.429688 C 185.125 267.429688 182.59375 267.246094 180.078125 266.871094 C 177.558594 266.496094 175.082031 265.941406 172.648438 265.203125 C 170.210938 264.464844 167.84375 263.550781 165.542969 262.464844 C 163.242188 261.375 161.035156 260.125 158.917969 258.710938 C 156.800781 257.296875 154.800781 255.734375 152.917969 254.027344 C 151.03125 252.316406 149.28125 250.480469 147.667969 248.511719 C 146.050781 246.542969 144.589844 244.46875 143.28125 242.285156 C 141.972656 240.105469 140.832031 237.835938 139.859375 235.484375 C 138.882812 233.132812 138.089844 230.726562 137.46875 228.257812 C 136.851562 225.789062 136.417969 223.285156 136.167969 220.753906 C 135.917969 218.222656 135.855469 215.683594 135.980469 213.144531 C 136.105469 210.601562 136.417969 208.082031 136.914062 205.585938 C 137.410156 203.089844 138.085938 200.644531 138.945312 198.246094 C 139.800781 195.851562 140.832031 193.53125 142.03125 191.289062 C 143.230469 189.042969 144.589844 186.898438 146.105469 184.855469 C 147.621094 182.8125 149.277344 180.890625 151.078125 179.089844 C 152.277344 177.890625 153.53125 176.753906 154.839844 175.679688 C 156.152344 174.605469 157.511719 173.59375 158.917969 172.652344 C 160.328125 171.710938 161.78125 170.839844 163.273438 170.042969 C 164.769531 169.242188 166.300781 168.519531 167.867188 167.871094 C 169.433594 167.222656 171.027344 166.652344 172.648438 166.160156 C 174.269531 165.667969 175.910156 165.257812 177.574219 164.925781 C 179.234375 164.59375 180.910156 164.347656 182.597656 164.179688 C 184.285156 164.015625 185.976562 163.933594 187.667969 163.933594 C 189.363281 163.933594 191.054688 164.015625 192.742188 164.179688 C 194.429688 164.347656 196.101562 164.59375 197.765625 164.925781 C 199.429688 165.257812 201.070312 165.667969 202.691406 166.160156 C 204.3125 166.652344 205.90625 167.222656 207.472656 167.871094 C 209.039062 168.519531 210.570312 169.242188 212.0625 170.042969 C 213.558594 170.839844 215.011719 171.710938 216.421875 172.652344 C 217.828125 173.59375 219.1875 174.605469 220.5 175.679688 C 221.808594 176.753906 223.0625 177.890625 224.261719 179.089844 C 226.0625 180.890625 227.71875 182.8125 229.234375 184.855469 C 230.75 186.898438 232.109375 189.042969 233.308594 191.289062 C 234.507812 193.53125 235.535156 195.851562 236.394531 198.25 C 237.25 200.644531 237.925781 203.089844 238.421875 205.585938 C 238.921875 208.082031 239.230469 210.601562 239.355469 213.144531 C 239.480469 215.683594 239.417969 218.222656 239.167969 220.753906 C 238.917969 223.285156 238.484375 225.789062 237.867188 228.257812 C 237.25 230.722656 236.453125 233.132812 235.480469 235.484375 C 234.503906 237.835938 233.363281 240.105469 232.054688 242.285156 C 230.746094 244.46875 229.285156 246.542969 227.671875 248.511719 C 226.058594 250.480469 224.308594 252.316406 222.421875 254.027344 C 220.535156 255.734375 218.535156 257.296875 216.417969 258.710938 C 214.304688 260.125 212.09375 261.375 209.792969 262.460938 C 207.492188 263.550781 205.125 264.464844 202.691406 265.203125 C 200.253906 265.941406 197.78125 266.496094 195.261719 266.871094 C 192.746094 267.246094 190.214844 267.429688 187.667969 267.429688 Z M 187.667969 165.191406 C 185.1875 165.191406 182.71875 165.371094 180.261719 165.734375 C 177.804688 166.101562 175.390625 166.644531 173.011719 167.363281 C 170.636719 168.085938 168.324219 168.976562 166.082031 170.039062 C 163.835938 171.097656 161.683594 172.320312 159.617188 173.699219 C 157.554688 175.078125 155.601562 176.601562 153.761719 178.269531 C 151.921875 179.9375 150.214844 181.730469 148.636719 183.648438 C 147.0625 185.570312 145.636719 187.59375 144.359375 189.722656 C 143.085938 191.851562 141.972656 194.066406 141.019531 196.359375 C 140.070312 198.652344 139.292969 201.003906 138.691406 203.414062 C 138.085938 205.820312 137.664062 208.261719 137.421875 210.730469 C 137.175781 213.203125 137.117188 215.679688 137.238281 218.160156 C 137.359375 220.640625 137.664062 223.097656 138.148438 225.53125 C 138.632812 227.96875 139.292969 230.355469 140.128906 232.691406 C 140.964844 235.03125 141.96875 237.292969 143.140625 239.484375 C 144.3125 241.671875 145.636719 243.765625 147.113281 245.757812 C 148.59375 247.753906 150.210938 249.628906 151.96875 251.382812 C 153.136719 252.558594 154.359375 253.671875 155.636719 254.722656 C 156.914062 255.777344 158.242188 256.765625 159.617188 257.6875 C 160.992188 258.609375 162.410156 259.460938 163.867188 260.246094 C 165.328125 261.027344 166.820312 261.738281 168.351562 262.371094 C 169.878906 263.007812 171.433594 263.566406 173.019531 264.050781 C 174.601562 264.535156 176.207031 264.9375 177.828125 265.261719 C 179.453125 265.589844 181.089844 265.832031 182.738281 265.996094 C 184.382812 266.160156 186.035156 266.242188 187.691406 266.246094 C 189.347656 266.246094 191 266.167969 192.648438 266.007812 C 194.296875 265.847656 195.929688 265.605469 197.554688 265.28125 C 199.179688 264.960938 200.785156 264.558594 202.371094 264.082031 C 203.953125 263.601562 205.511719 263.046875 207.042969 262.414062 C 208.570312 261.777344 210.066406 261.074219 211.527344 260.292969 C 212.988281 259.511719 214.40625 258.664062 215.785156 257.742188 C 217.160156 256.824219 218.488281 255.839844 219.769531 254.789062 C 221.050781 253.738281 222.273438 252.628906 223.445312 251.457031 C 224.617188 250.285156 225.726562 249.0625 226.777344 247.78125 C 227.828125 246.5 228.8125 245.171875 229.730469 243.796875 C 230.652344 242.417969 231.5 241 232.28125 239.539062 C 233.0625 238.078125 233.769531 236.582031 234.402344 235.054688 C 235.035156 233.523438 235.589844 231.964844 236.070312 230.378906 C 236.550781 228.796875 236.949219 227.191406 237.273438 225.566406 C 237.59375 223.941406 237.835938 222.304688 237.996094 220.660156 C 238.15625 219.011719 238.234375 217.359375 238.234375 215.703125 C 238.234375 214.046875 238.148438 212.394531 237.984375 210.746094 C 237.820312 209.101562 237.578125 207.464844 237.25 205.839844 C 236.925781 204.21875 236.523438 202.613281 236.039062 201.03125 C 235.558594 199.445312 234.996094 197.890625 234.363281 196.359375 C 233.726562 194.832031 233.015625 193.339844 232.234375 191.878906 C 231.449219 190.421875 230.597656 189.003906 229.675781 187.628906 C 228.753906 186.253906 227.765625 184.925781 226.710938 183.648438 C 225.660156 182.371094 224.546875 181.148438 223.371094 179.980469 C 221.035156 177.628906 218.488281 175.527344 215.730469 173.683594 C 212.976562 171.835938 210.066406 170.277344 207.003906 169.007812 C 203.9375 167.738281 200.78125 166.78125 197.527344 166.140625 C 194.273438 165.496094 190.988281 165.179688 187.667969 165.191406 Z M 187.667969 165.191406 " fill-opacity="1" fill-rule="nonzero"/></g><g clip-path="url(#57d4ac1240)"><path fill="#999999" d="M 110.460938 178.078125 C 110.347656 177.761719 110.175781 177.480469 109.945312 177.234375 C 109.71875 176.988281 109.453125 176.792969 109.148438 176.652344 C 108.84375 176.511719 108.523438 176.433594 108.1875 176.421875 C 107.851562 176.40625 107.523438 176.460938 107.207031 176.578125 C 105.402344 177.386719 103.601562 178.21875 101.832031 179.09375 C 99.480469 180.242188 96.476562 179.105469 95.078125 176.480469 L 78.019531 144.046875 C 74.191406 146.058594 70.421875 148.1875 66.710938 150.4375 C 66.300781 150.671875 65.964844 150.988281 65.703125 151.386719 C 65.445312 151.785156 65.289062 152.21875 65.242188 152.691406 C 65.1875 153.136719 65.25 153.5625 65.433594 153.972656 C 65.617188 154.378906 65.894531 154.710938 66.261719 154.96875 C 72.242188 159.292969 78.003906 163.804688 83.550781 168.503906 C 84.070312 168.929688 84.378906 169.472656 84.484375 170.132812 C 85.734375 177.28125 87.246094 184.328125 89.023438 191.273438 C 89.242188 192.15625 89.753906 192.808594 90.5625 193.230469 C 90.898438 193.433594 91.261719 193.535156 91.652344 193.539062 C 92.046875 193.542969 92.410156 193.445312 92.75 193.246094 C 98.476562 189.773438 104.402344 186.671875 110.519531 183.941406 C 111.664062 183.4375 112.121094 181.914062 111.535156 180.550781 Z M 110.460938 178.078125 " fill-opacity="1" fill-rule="evenodd"/></g><g clip-path="url(#290a6dc068)"><path fill="#999999" d="M 310.042969 152.691406 C 309.992188 152.21875 309.835938 151.785156 309.574219 151.386719 C 309.316406 150.988281 308.980469 150.671875 308.566406 150.4375 C 304.859375 148.191406 301.089844 146.0625 297.257812 144.042969 L 280.199219 176.480469 C 278.800781 179.101562 275.792969 180.238281 273.445312 179.09375 C 271.671875 178.21875 269.875 177.386719 268.070312 176.574219 C 267.753906 176.457031 267.429688 176.40625 267.09375 176.417969 C 266.753906 176.433594 266.433594 176.507812 266.128906 176.648438 C 265.824219 176.789062 265.558594 176.984375 265.332031 177.230469 C 265.101562 177.480469 264.929688 177.761719 264.816406 178.074219 L 263.742188 180.550781 C 263.160156 181.910156 263.617188 183.433594 264.761719 183.9375 C 270.878906 186.671875 276.800781 189.773438 282.53125 193.242188 C 282.867188 193.441406 283.234375 193.539062 283.625 193.539062 C 284.019531 193.535156 284.382812 193.433594 284.71875 193.230469 C 285.523438 192.808594 286.035156 192.15625 286.257812 191.273438 C 288.03125 184.339844 289.546875 177.292969 290.796875 170.132812 C 290.902344 169.472656 291.214844 168.929688 291.730469 168.5 C 297.277344 163.804688 303.042969 159.292969 309.019531 154.964844 C 309.386719 154.710938 309.660156 154.378906 309.84375 153.96875 C 310.027344 153.5625 310.09375 153.136719 310.042969 152.691406 Z M 310.042969 152.691406 " fill-opacity="1" fill-rule="evenodd"/></g><g clip-path="url(#c14b74b0ad)"><path fill="#383838" d="M 277.339844 174.6875 L 297.605469 134.820312 C 298.277344 133.503906 297.582031 131.777344 296.035156 131.035156 C 261.996094 114.402344 224.710938 106.589844 187.640625 106.539062 C 150.570312 106.585938 113.285156 114.402344 79.242188 131.035156 C 77.695312 131.78125 77.003906 133.5 77.675781 134.820312 L 97.9375 174.6875 C 98.078125 174.996094 98.273438 175.265625 98.519531 175.5 C 98.765625 175.730469 99.046875 175.910156 99.363281 176.03125 C 99.679688 176.15625 100.007812 176.214844 100.34375 176.210938 C 100.683594 176.207031 101.011719 176.140625 101.324219 176.007812 C 154.285156 150.15625 220.992188 150.160156 273.957031 176.007812 C 274.269531 176.140625 274.59375 176.207031 274.933594 176.210938 C 275.273438 176.214844 275.597656 176.15625 275.914062 176.03125 C 276.230469 175.910156 276.511719 175.730469 276.757812 175.5 C 277.003906 175.265625 277.199219 174.996094 277.339844 174.6875 Z M 277.339844 174.6875 " fill-opacity="1" fill-rule="evenodd"/></g><path stroke-linecap="round" transform="matrix(0.75, 0, 0, 0.75, 88.985703, 216.793594)" fill="none" stroke-linejoin="miter" d="M 0.998229 0.999167 L 50.586774 0.999167 " stroke="#999999" stroke-width="2" stroke-opacity="1" stroke-miterlimit="4"/><path stroke-linecap="round" transform="matrix(0.75, 0, 0, 0.75, 247.323651, 216.793594)" fill="none" stroke-linejoin="miter" d="M 1.000758 0.999167 L 50.589302 0.999167 " stroke="#999999" stroke-width="2" stroke-opacity="1" stroke-miterlimit="4"/><g clip-path="url(#ebc5033523)"><path fill="#999999" d="M 194.320312 89.910156 C 194.277344 89.78125 194.1875 89.714844 194.050781 89.714844 L 189.308594 89.722656 L 187.851562 85.261719 C 187.808594 85.132812 187.71875 85.070312 187.582031 85.070312 C 187.445312 85.066406 187.355469 85.132812 187.316406 85.261719 L 185.859375 89.722656 L 181.113281 89.714844 C 180.976562 89.714844 180.886719 89.78125 180.847656 89.910156 C 180.804688 90.035156 180.839844 90.140625 180.949219 90.21875 L 184.792969 92.96875 L 183.320312 97.429688 C 183.277344 97.558594 183.3125 97.660156 183.421875 97.738281 C 183.53125 97.816406 183.644531 97.816406 183.753906 97.738281 L 187.585938 94.976562 L 191.417969 97.738281 C 191.46875 97.773438 191.523438 97.792969 191.585938 97.792969 C 191.644531 97.792969 191.699219 97.773438 191.746094 97.738281 C 191.859375 97.660156 191.894531 97.558594 191.851562 97.429688 L 190.378906 92.96875 L 194.21875 90.222656 C 194.328125 90.140625 194.363281 90.039062 194.320312 89.910156 Z M 194.320312 89.910156 " fill-opacity="1" fill-rule="nonzero"/></g><path stroke-linecap="round" transform="matrix(0.75, 0, 0, 0.75, 155.935542, 94.282494)" fill="none" stroke-linejoin="miter" d="M 0.997402 0.998342 L 23.075529 0.998342 " stroke="#999999" stroke-width="2" stroke-opacity="1" stroke-miterlimit="4"/><path stroke-linecap="round" transform="matrix(0.75, 0, 0, 0.75, 201.008663, 94.282494)" fill="none" stroke-linejoin="miter" d="M 0.998867 0.998342 L 23.071785 0.998342 " stroke="#999999" stroke-width="2" stroke-opacity="1" stroke-miterlimit="4"/><path fill="#999999" d="M 165.929688 214.761719 C 166.246094 214.882812 166.570312 214.953125 166.910156 214.960938 C 166.933594 214.960938 166.949219 214.949219 166.953125 214.929688 C 166.964844 214.90625 166.960938 214.886719 166.945312 214.867188 C 166.394531 214.285156 165.96875 213.625 165.664062 212.886719 C 166.207031 213.5625 166.878906 214.070312 167.671875 214.417969 C 167.695312 214.425781 167.714844 214.421875 167.726562 214.398438 C 167.738281 214.375 167.738281 214.351562 167.722656 214.332031 C 167.367188 213.925781 167.042969 213.5 166.75 213.050781 C 166.867188 213.082031 166.984375 213.105469 167.109375 213.117188 C 167.132812 213.117188 167.148438 213.105469 167.15625 213.082031 C 167.164062 213.058594 167.160156 213.039062 167.140625 213.023438 C 166.25 212.160156 165.621094 211.136719 165.257812 209.949219 C 165.550781 210.125 165.859375 210.261719 166.191406 210.351562 C 166.214844 210.359375 166.234375 210.351562 166.242188 210.328125 C 166.253906 210.304688 166.25 210.285156 166.238281 210.265625 C 165.183594 209.027344 164.457031 207.617188 164.054688 206.042969 C 164.054688 206.03125 164.042969 206.023438 164.03125 206.023438 C 164.019531 206.023438 164.011719 206.03125 164.007812 206.042969 C 163.605469 207.617188 162.878906 209.027344 161.828125 210.265625 C 161.808594 210.285156 161.808594 210.304688 161.820312 210.328125 C 161.828125 210.351562 161.847656 210.359375 161.871094 210.351562 C 162.199219 210.261719 162.511719 210.125 162.804688 209.949219 C 162.441406 211.136719 161.8125 212.160156 160.917969 213.023438 C 160.902344 213.039062 160.898438 213.0625 160.90625 213.082031 C 160.914062 213.105469 160.929688 213.117188 160.953125 213.117188 C 161.074219 213.105469 161.195312 213.082031 161.3125 213.050781 C 161.019531 213.5 160.695312 213.925781 160.339844 214.332031 C 160.324219 214.351562 160.320312 214.375 160.335938 214.398438 C 160.347656 214.417969 160.367188 214.425781 160.390625 214.417969 C 161.183594 214.070312 161.851562 213.5625 162.394531 212.886719 C 162.089844 213.625 161.664062 214.289062 161.117188 214.867188 C 161.101562 214.886719 161.097656 214.90625 161.105469 214.929688 C 161.113281 214.949219 161.128906 214.960938 161.152344 214.960938 C 161.488281 214.953125 161.816406 214.882812 162.128906 214.761719 C 161.386719 216.222656 160.441406 217.539062 159.292969 218.710938 C 159 218.277344 158.734375 217.824219 158.496094 217.355469 C 158.746094 217.457031 159.007812 217.507812 159.277344 217.515625 C 159.296875 217.515625 159.308594 217.507812 159.3125 217.488281 C 159.320312 217.472656 159.316406 217.457031 159.304688 217.441406 C 158.867188 216.976562 158.527344 216.449219 158.285156 215.859375 C 158.71875 216.398438 159.253906 216.804688 159.886719 217.082031 C 159.90625 217.089844 159.921875 217.082031 159.929688 217.066406 C 159.941406 217.046875 159.941406 217.027344 159.925781 217.011719 C 159.640625 216.691406 159.382812 216.347656 159.148438 215.988281 C 159.242188 216.015625 159.335938 216.035156 159.4375 216.042969 C 159.453125 216.042969 159.46875 216.035156 159.472656 216.015625 C 159.480469 215.996094 159.476562 215.980469 159.460938 215.96875 C 158.75 215.277344 158.25 214.460938 157.957031 213.511719 C 158.191406 213.652344 158.4375 213.761719 158.703125 213.835938 C 158.722656 213.839844 158.734375 213.832031 158.742188 213.816406 C 158.753906 213.796875 158.75 213.78125 158.738281 213.765625 C 157.898438 212.773438 157.316406 211.648438 156.996094 210.390625 C 156.992188 210.378906 156.988281 210.375 156.976562 210.375 C 156.964844 210.375 156.960938 210.378906 156.957031 210.390625 C 156.636719 211.648438 156.054688 212.773438 155.214844 213.765625 C 155.203125 213.78125 155.199219 213.796875 155.207031 213.816406 C 155.214844 213.832031 155.230469 213.839844 155.25 213.835938 C 155.511719 213.761719 155.761719 213.652344 155.996094 213.511719 C 155.703125 214.460938 155.203125 215.277344 154.488281 215.96875 C 154.476562 215.980469 154.472656 215.996094 154.480469 216.015625 C 154.484375 216.03125 154.496094 216.042969 154.515625 216.042969 C 154.613281 216.035156 154.710938 216.015625 154.804688 215.988281 C 154.570312 216.347656 154.308594 216.691406 154.027344 217.011719 C 154.011719 217.027344 154.011719 217.046875 154.023438 217.066406 C 154.03125 217.082031 154.046875 217.089844 154.066406 217.082031 C 154.699219 216.804688 155.234375 216.398438 155.671875 215.859375 C 155.425781 216.449219 155.085938 216.976562 154.648438 217.441406 C 154.636719 217.457031 154.632812 217.472656 154.636719 217.488281 C 154.644531 217.507812 154.65625 217.515625 154.675781 217.515625 C 154.945312 217.507812 155.207031 217.457031 155.457031 217.355469 C 155.007812 218.234375 154.46875 219.054688 153.832031 219.808594 C 152.6875 218.761719 151.765625 217.546875 151.0625 216.164062 C 151.316406 216.265625 151.574219 216.320312 151.847656 216.324219 C 151.863281 216.324219 151.875 216.316406 151.882812 216.300781 C 151.890625 216.28125 151.886719 216.265625 151.875 216.253906 C 151.4375 215.789062 151.09375 215.261719 150.851562 214.667969 C 151.285156 215.207031 151.820312 215.613281 152.453125 215.890625 C 152.472656 215.898438 152.488281 215.894531 152.5 215.875 C 152.511719 215.855469 152.507812 215.839844 152.496094 215.824219 C 152.210938 215.5 151.953125 215.160156 151.71875 214.796875 C 151.8125 214.824219 151.90625 214.84375 152.003906 214.851562 C 152.023438 214.851562 152.035156 214.84375 152.042969 214.824219 C 152.046875 214.808594 152.042969 214.792969 152.03125 214.777344 C 151.320312 214.089844 150.816406 213.269531 150.523438 212.324219 C 150.757812 212.464844 151.007812 212.570312 151.273438 212.644531 C 151.289062 212.648438 151.304688 212.644531 151.3125 212.625 C 151.320312 212.605469 151.320312 212.589844 151.308594 212.574219 C 150.46875 211.585938 149.886719 210.460938 149.5625 209.199219 C 149.5625 209.191406 149.554688 209.183594 149.546875 209.183594 C 149.535156 209.183594 149.527344 209.191406 149.527344 209.199219 C 149.203125 210.460938 148.625 211.585938 147.78125 212.574219 C 147.769531 212.589844 147.769531 212.605469 147.777344 212.625 C 147.785156 212.644531 147.800781 212.648438 147.820312 212.644531 C 148.082031 212.570312 148.332031 212.464844 148.566406 212.324219 C 148.320312 213.117188 147.917969 213.828125 147.359375 214.445312 C 147.355469 214.566406 147.355469 214.683594 147.351562 214.800781 C 147.359375 214.800781 147.367188 214.800781 147.375 214.796875 C 147.367188 214.808594 147.359375 214.816406 147.351562 214.828125 C 147.347656 215.050781 147.339844 215.273438 147.335938 215.496094 C 147.671875 215.261719 147.972656 214.984375 148.238281 214.667969 C 148.015625 215.207031 147.710938 215.691406 147.328125 216.125 C 147.328125 216.191406 147.332031 216.253906 147.332031 216.316406 C 147.570312 216.308594 147.800781 216.257812 148.027344 216.167969 C 147.820312 216.566406 147.597656 216.953125 147.351562 217.328125 C 147.425781 219.703125 147.707031 222.054688 148.195312 224.378906 C 148.6875 226.707031 149.378906 228.972656 150.269531 231.175781 C 151.160156 233.378906 152.242188 235.488281 153.507812 237.5 C 154.773438 239.511719 156.203125 241.394531 157.804688 243.152344 L 159.464844 243.152344 L 159.464844 241.328125 L 161.3125 241.328125 L 161.3125 229.292969 L 154.785156 232.625 L 150.082031 229.058594 L 168.566406 218.386719 C 167.296875 217.460938 166.417969 216.253906 165.929688 214.761719 Z M 228.136719 216.125 C 227.75 215.691406 227.445312 215.207031 227.222656 214.667969 C 227.488281 214.984375 227.789062 215.261719 228.125 215.496094 C 228.121094 215.273438 228.117188 215.050781 228.109375 214.828125 C 228.101562 214.816406 228.09375 214.808594 228.089844 214.796875 C 228.09375 214.800781 228.101562 214.800781 228.109375 214.800781 C 228.105469 214.683594 228.105469 214.566406 228.101562 214.445312 C 227.542969 213.828125 227.140625 213.117188 226.894531 212.324219 C 227.128906 212.464844 227.378906 212.570312 227.640625 212.644531 C 227.660156 212.648438 227.675781 212.644531 227.683594 212.625 C 227.691406 212.605469 227.691406 212.589844 227.679688 212.574219 C 226.835938 211.585938 226.257812 210.460938 225.933594 209.199219 C 225.933594 209.191406 225.925781 209.183594 225.914062 209.183594 C 225.90625 209.183594 225.898438 209.191406 225.898438 209.199219 C 225.574219 210.460938 224.992188 211.585938 224.152344 212.574219 C 224.140625 212.589844 224.140625 212.605469 224.148438 212.625 C 224.15625 212.644531 224.171875 212.648438 224.191406 212.644531 C 224.453125 212.570312 224.703125 212.464844 224.9375 212.324219 C 224.644531 213.269531 224.140625 214.089844 223.429688 214.777344 C 223.414062 214.792969 223.414062 214.808594 223.417969 214.824219 C 223.425781 214.84375 223.4375 214.851562 223.457031 214.851562 C 223.554688 214.84375 223.648438 214.824219 223.742188 214.796875 C 223.507812 215.160156 223.25 215.5 222.964844 215.824219 C 222.953125 215.839844 222.953125 215.855469 222.960938 215.875 C 222.972656 215.894531 222.988281 215.898438 223.007812 215.890625 C 223.640625 215.613281 224.175781 215.207031 224.609375 214.667969 C 224.367188 215.257812 224.023438 215.789062 223.585938 216.253906 C 223.574219 216.265625 223.570312 216.28125 223.578125 216.300781 C 223.582031 216.316406 223.597656 216.324219 223.613281 216.324219 C 223.886719 216.320312 224.144531 216.265625 224.398438 216.164062 C 223.695312 217.546875 222.773438 218.761719 221.628906 219.808594 C 220.992188 219.050781 220.449219 218.234375 220.003906 217.355469 C 220.253906 217.457031 220.515625 217.507812 220.785156 217.515625 C 220.804688 217.515625 220.816406 217.507812 220.824219 217.488281 C 220.828125 217.472656 220.824219 217.457031 220.8125 217.441406 C 220.375 216.976562 220.035156 216.449219 219.792969 215.859375 C 220.226562 216.398438 220.761719 216.804688 221.394531 217.082031 C 221.414062 217.089844 221.429688 217.082031 221.4375 217.066406 C 221.449219 217.046875 221.449219 217.03125 221.433594 217.011719 C 221.148438 216.691406 220.890625 216.347656 220.65625 215.988281 C 220.75 216.015625 220.847656 216.035156 220.945312 216.042969 C 220.960938 216.042969 220.976562 216.03125 220.980469 216.015625 C 220.988281 215.996094 220.984375 215.980469 220.96875 215.96875 C 220.257812 215.277344 219.757812 214.460938 219.464844 213.511719 C 219.699219 213.652344 219.949219 213.761719 220.210938 213.835938 C 220.230469 213.839844 220.242188 213.832031 220.253906 213.816406 C 220.261719 213.796875 220.257812 213.78125 220.246094 213.765625 C 219.40625 212.773438 218.824219 211.648438 218.503906 210.390625 C 218.5 210.378906 218.496094 210.375 218.484375 210.375 C 218.472656 210.375 218.46875 210.378906 218.464844 210.390625 C 218.144531 211.648438 217.5625 212.773438 216.722656 213.765625 C 216.710938 213.78125 216.707031 213.796875 216.714844 213.816406 C 216.726562 213.832031 216.738281 213.839844 216.757812 213.835938 C 217.023438 213.761719 217.269531 213.652344 217.503906 213.511719 C 217.210938 214.460938 216.710938 215.277344 216 215.96875 C 215.984375 215.980469 215.980469 215.996094 215.988281 216.015625 C 215.992188 216.03125 216.003906 216.042969 216.023438 216.042969 C 216.121094 216.035156 216.21875 216.015625 216.3125 215.988281 C 216.078125 216.347656 215.816406 216.691406 215.535156 217.011719 C 215.519531 217.03125 215.519531 217.046875 215.53125 217.066406 C 215.539062 217.085938 215.554688 217.089844 215.574219 217.082031 C 216.210938 216.804688 216.742188 216.398438 217.179688 215.859375 C 216.933594 216.449219 216.59375 216.976562 216.15625 217.441406 C 216.140625 217.457031 216.140625 217.472656 216.148438 217.488281 C 216.152344 217.507812 216.164062 217.515625 216.183594 217.515625 C 216.453125 217.507812 216.714844 217.457031 216.964844 217.355469 C 216.726562 217.824219 216.460938 218.277344 216.167969 218.710938 C 215.019531 217.539062 214.074219 216.222656 213.332031 214.761719 C 213.644531 214.886719 213.972656 214.953125 214.3125 214.960938 C 214.335938 214.960938 214.347656 214.949219 214.355469 214.929688 C 214.367188 214.90625 214.363281 214.886719 214.347656 214.871094 C 213.796875 214.289062 213.371094 213.628906 213.066406 212.886719 C 213.609375 213.5625 214.277344 214.070312 215.074219 214.417969 C 215.097656 214.429688 215.117188 214.421875 215.128906 214.398438 C 215.144531 214.375 215.140625 214.351562 215.125 214.332031 C 214.769531 213.929688 214.445312 213.5 214.148438 213.050781 C 214.269531 213.085938 214.386719 213.105469 214.511719 213.117188 C 214.535156 213.117188 214.550781 213.105469 214.554688 213.085938 C 214.566406 213.0625 214.5625 213.042969 214.542969 213.023438 C 213.652344 212.160156 213.023438 211.136719 212.660156 209.949219 C 212.953125 210.128906 213.261719 210.261719 213.59375 210.355469 C 213.617188 210.359375 213.636719 210.351562 213.644531 210.328125 C 213.65625 210.308594 213.65625 210.285156 213.636719 210.265625 C 212.585938 209.027344 211.859375 207.617188 211.457031 206.042969 C 211.453125 206.03125 211.445312 206.023438 211.433594 206.023438 C 211.417969 206.023438 211.410156 206.03125 211.410156 206.042969 C 211.003906 207.617188 210.277344 209.027344 209.226562 210.265625 C 209.210938 210.285156 209.210938 210.308594 209.21875 210.328125 C 209.230469 210.351562 209.246094 210.359375 209.273438 210.355469 C 209.601562 210.261719 209.914062 210.128906 210.207031 209.949219 C 209.839844 211.136719 209.210938 212.160156 208.320312 213.023438 C 208.304688 213.042969 208.300781 213.0625 208.308594 213.085938 C 208.316406 213.105469 208.332031 213.117188 208.355469 213.117188 C 208.476562 213.105469 208.597656 213.085938 208.714844 213.050781 C 208.421875 213.5 208.09375 213.929688 207.742188 214.332031 C 207.722656 214.351562 207.722656 214.375 207.734375 214.398438 C 207.746094 214.421875 207.765625 214.425781 207.789062 214.417969 C 208.585938 214.070312 209.253906 213.5625 209.796875 212.886719 C 209.492188 213.628906 209.066406 214.289062 208.519531 214.871094 C 208.503906 214.886719 208.5 214.90625 208.507812 214.929688 C 208.515625 214.949219 208.527344 214.960938 208.550781 214.960938 C 208.890625 214.953125 209.21875 214.886719 209.53125 214.761719 C 209 216.390625 208.015625 217.671875 206.582031 218.609375 L 224.683594 229.058594 L 219.972656 232.625 L 213.445312 229.289062 L 213.445312 241.324219 L 215.292969 241.324219 L 215.292969 243.152344 L 217.65625 243.152344 C 219.257812 241.394531 220.691406 239.507812 221.957031 237.496094 C 223.222656 235.484375 224.300781 233.375 225.191406 231.171875 C 226.082031 228.96875 226.773438 226.703125 227.265625 224.378906 C 227.753906 222.050781 228.035156 219.703125 228.109375 217.324219 C 227.863281 216.949219 227.640625 216.5625 227.433594 216.164062 C 227.660156 216.253906 227.890625 216.304688 228.132812 216.3125 C 228.132812 216.25 228.136719 216.1875 228.136719 216.125 Z M 228.136719 216.125 " fill-opacity="1" fill-rule="evenodd"/><path fill="#383838" d="M 219.820312 183.925781 C 219.210938 183.3125 218.578125 182.71875 217.933594 182.140625 C 217.285156 181.566406 216.621094 181.007812 215.945312 180.46875 C 215.265625 179.929688 214.570312 179.410156 213.863281 178.910156 C 213.15625 178.414062 212.433594 177.933594 211.695312 177.476562 C 210.960938 177.019531 210.210938 176.582031 209.449219 176.167969 C 208.691406 175.753906 207.917969 175.359375 207.132812 174.988281 C 206.351562 174.617188 205.558594 174.269531 204.753906 173.945312 C 203.949219 173.621094 203.140625 173.320312 202.316406 173.039062 C 201.496094 172.761719 200.667969 172.507812 199.835938 172.273438 C 199 172.042969 198.15625 171.835938 197.3125 171.652344 C 196.464844 171.46875 195.613281 171.3125 194.753906 171.179688 C 193.898438 171.042969 193.039062 170.933594 192.175781 170.847656 C 191.316406 170.765625 190.449219 170.703125 189.585938 170.667969 C 188.71875 170.632812 187.851562 170.621094 186.984375 170.636719 C 186.121094 170.648438 185.253906 170.6875 184.390625 170.753906 C 183.527344 170.816406 182.664062 170.90625 181.804688 171.019531 C 180.945312 171.132812 180.089844 171.269531 179.238281 171.429688 C 178.386719 171.59375 177.542969 171.777344 176.699219 171.988281 C 175.859375 172.199219 175.027344 172.433594 174.199219 172.691406 C 173.371094 172.953125 172.550781 173.234375 171.742188 173.539062 C 170.929688 173.84375 170.128906 174.171875 169.335938 174.523438 C 168.542969 174.875 167.761719 175.246094 166.992188 175.644531 C 166.21875 176.039062 165.460938 176.457031 164.714844 176.898438 C 163.964844 177.335938 163.234375 177.796875 162.511719 178.277344 C 161.792969 178.757812 161.085938 179.261719 160.394531 179.78125 C 159.703125 180.304688 159.023438 180.847656 158.363281 181.40625 C 157.703125 181.96875 157.058594 182.546875 156.429688 183.144531 C 155.804688 183.742188 155.195312 184.355469 154.601562 184.988281 C 154.007812 185.621094 153.433594 186.269531 152.878906 186.9375 C 152.324219 187.601562 151.789062 188.28125 151.273438 188.980469 C 150.753906 189.675781 150.261719 190.386719 149.785156 191.109375 C 149.308594 191.832031 148.855469 192.570312 148.421875 193.320312 C 147.988281 194.074219 147.574219 194.835938 147.1875 195.609375 C 146.796875 196.382812 146.429688 197.167969 146.085938 197.960938 C 145.738281 198.757812 145.417969 199.5625 145.121094 200.375 C 144.820312 201.191406 144.546875 202.011719 144.292969 202.839844 C 144.042969 203.667969 143.816406 204.503906 143.609375 205.347656 C 143.40625 206.191406 143.226562 207.039062 143.074219 207.890625 C 142.917969 208.742188 142.785156 209.597656 142.679688 210.460938 C 142.574219 211.320312 142.492188 212.183594 142.4375 213.046875 C 142.378906 213.910156 142.347656 214.777344 142.339844 215.644531 C 142.332031 216.511719 142.351562 217.378906 142.394531 218.242188 C 142.4375 219.109375 142.503906 219.972656 142.59375 220.832031 C 142.6875 221.695312 142.804688 222.554688 142.945312 223.410156 C 143.085938 224.265625 143.25 225.113281 143.441406 225.960938 C 143.632812 226.804688 143.84375 227.644531 144.082031 228.480469 C 144.320312 229.3125 144.582031 230.136719 144.867188 230.957031 C 145.152344 231.773438 145.460938 232.585938 145.792969 233.386719 C 146.125 234.1875 146.480469 234.976562 146.855469 235.757812 C 147.234375 236.535156 147.632812 237.304688 148.054688 238.0625 C 148.472656 238.820312 148.917969 239.566406 149.378906 240.296875 C 149.84375 241.03125 150.328125 241.75 150.832031 242.453125 C 151.335938 243.15625 151.863281 243.847656 152.40625 244.523438 C 152.949219 245.195312 153.515625 245.855469 154.097656 246.496094 C 154.679688 247.140625 155.277344 247.765625 155.894531 248.371094 C 156.511719 248.980469 157.148438 249.570312 157.800781 250.140625 C 158.449219 250.710938 159.117188 251.265625 159.800781 251.796875 C 160.484375 252.332031 161.183594 252.84375 161.894531 253.335938 C 162.609375 253.832031 163.335938 254.304688 164.074219 254.753906 C 164.8125 255.207031 165.566406 255.636719 166.328125 256.042969 C 167.09375 256.453125 167.871094 256.839844 168.65625 257.203125 C 169.441406 257.566406 170.238281 257.910156 171.042969 258.226562 C 171.851562 258.546875 172.664062 258.839844 173.488281 259.113281 C 174.3125 259.386719 175.140625 259.632812 175.976562 259.859375 C 176.816406 260.082031 177.660156 260.28125 178.507812 260.457031 C 179.355469 260.632812 180.207031 260.785156 181.066406 260.914062 C 181.921875 261.039062 182.785156 261.144531 183.644531 261.222656 C 184.507812 261.296875 185.375 261.351562 186.242188 261.378906 C 187.105469 261.410156 187.972656 261.410156 188.839844 261.390625 C 189.707031 261.371094 190.570312 261.324219 191.433594 261.253906 C 192.296875 261.183594 193.160156 261.085938 194.019531 260.964844 C 194.875 260.847656 195.730469 260.703125 196.582031 260.53125 C 197.429688 260.363281 198.273438 260.171875 199.113281 259.953125 C 199.953125 259.734375 200.785156 259.492188 201.609375 259.230469 C 202.433594 258.964844 203.25 258.675781 204.058594 258.363281 C 204.867188 258.050781 205.667969 257.714844 206.457031 257.359375 C 207.246094 257 208.023438 256.621094 208.792969 256.21875 C 209.558594 255.816406 210.316406 255.394531 211.058594 254.949219 C 211.804688 254.5 212.53125 254.035156 213.25 253.546875 C 213.964844 253.0625 214.667969 252.554688 215.355469 252.027344 C 216.042969 251.496094 216.714844 250.949219 217.371094 250.386719 C 218.027344 249.820312 218.667969 249.234375 219.289062 248.632812 C 219.914062 248.027344 220.519531 247.410156 221.105469 246.773438 C 221.691406 246.132812 222.261719 245.480469 222.8125 244.8125 C 223.359375 244.140625 223.890625 243.457031 224.402344 242.753906 C 224.910156 242.054688 225.402344 241.339844 225.871094 240.613281 C 226.339844 239.882812 226.789062 239.144531 227.214844 238.386719 C 227.644531 237.632812 228.050781 236.867188 228.433594 236.089844 C 228.816406 235.3125 229.175781 234.527344 229.515625 233.730469 C 229.851562 232.929688 230.167969 232.125 230.460938 231.308594 C 230.753906 230.492188 231.019531 229.667969 231.265625 228.835938 C 231.511719 228.003906 231.730469 227.167969 231.925781 226.324219 C 232.125 225.480469 232.296875 224.628906 232.445312 223.777344 C 232.59375 222.921875 232.71875 222.066406 232.816406 221.203125 C 232.914062 220.34375 232.988281 219.480469 233.039062 218.613281 C 233.089844 217.75 233.113281 216.882812 233.113281 216.015625 C 233.117188 213.035156 232.828125 210.085938 232.25 207.160156 C 231.671875 204.238281 230.808594 201.398438 229.667969 198.644531 C 228.53125 195.890625 227.128906 193.277344 225.472656 190.800781 C 223.816406 188.320312 221.933594 186.03125 219.820312 183.925781 Z M 172.429688 236.847656 L 168.832031 236.847656 L 168.832031 233.25 L 172.429688 233.25 Z M 172.429688 232.109375 L 168.832031 232.109375 L 168.832031 228.511719 L 172.429688 228.511719 Z M 177.164062 236.847656 L 173.570312 236.847656 L 173.570312 233.25 L 177.164062 233.25 Z M 177.164062 232.109375 L 173.570312 232.109375 L 173.570312 228.511719 L 177.164062 228.511719 Z M 191.816406 241.980469 L 182.945312 241.980469 L 182.945312 227.394531 L 191.816406 227.394531 Z M 201.1875 236.847656 L 197.59375 236.847656 L 197.59375 233.25 L 201.1875 233.25 Z M 201.1875 232.109375 L 197.59375 232.109375 L 197.59375 228.511719 L 201.1875 228.511719 Z M 205.925781 236.847656 L 202.332031 236.847656 L 202.332031 233.25 L 205.925781 233.25 Z M 205.925781 232.109375 L 202.332031 232.109375 L 202.332031 228.511719 L 205.925781 228.511719 Z M 218.554688 245.210938 L 213.234375 245.210938 L 213.234375 243.382812 L 211.390625 243.382812 L 211.390625 227.191406 L 205.886719 223.117188 L 219.761719 230.203125 L 220.964844 229.289062 L 203.894531 219.433594 L 203.894531 215.425781 L 204.398438 215.425781 L 204.398438 213.875 L 199.121094 213.875 L 199.121094 215.425781 L 199.621094 215.425781 L 199.621094 216.96875 L 187.378906 209.898438 L 153.792969 229.289062 L 155 230.203125 L 168.871094 223.117188 L 163.367188 227.191406 L 163.367188 243.382812 L 161.519531 243.382812 L 161.519531 245.210938 L 156.90625 245.210938 C 155.960938 244.210938 155.0625 243.171875 154.21875 242.085938 C 153.375 241 152.585938 239.878906 151.851562 238.714844 C 151.113281 237.554688 150.4375 236.359375 149.816406 235.132812 C 149.199219 233.90625 148.640625 232.648438 148.140625 231.367188 C 147.644531 230.085938 147.210938 228.785156 146.839844 227.460938 C 146.46875 226.136719 146.164062 224.796875 145.921875 223.445312 C 145.679688 222.089844 145.503906 220.726562 145.398438 219.359375 C 145.289062 217.988281 145.246094 216.613281 145.269531 215.238281 C 145.296875 213.863281 145.386719 212.496094 145.542969 211.128906 C 145.703125 209.761719 145.925781 208.40625 146.214844 207.0625 C 146.503906 205.71875 146.859375 204.394531 147.277344 203.082031 C 147.695312 201.773438 148.175781 200.488281 148.71875 199.222656 C 149.261719 197.960938 149.863281 196.726562 150.527344 195.523438 C 151.191406 194.316406 151.910156 193.148438 152.6875 192.015625 C 153.464844 190.878906 154.292969 189.785156 155.175781 188.730469 C 156.058594 187.675781 156.992188 186.667969 157.972656 185.703125 C 158.953125 184.742188 159.980469 183.828125 161.046875 182.964844 C 162.117188 182.101562 163.226562 181.289062 164.375 180.535156 C 165.523438 179.777344 166.707031 179.078125 167.921875 178.4375 C 169.136719 177.796875 170.382812 177.214844 171.65625 176.695312 C 172.925781 176.175781 174.222656 175.71875 175.539062 175.324219 C 176.855469 174.929688 178.191406 174.597656 179.539062 174.332031 C 180.886719 174.066406 182.246094 173.867188 183.613281 173.734375 C 184.984375 173.601562 186.355469 173.535156 187.730469 173.535156 C 189.105469 173.535156 190.476562 173.601562 191.84375 173.734375 C 193.214844 173.867188 194.570312 174.066406 195.921875 174.332031 C 197.269531 174.597656 198.601562 174.929688 199.921875 175.324219 C 201.238281 175.71875 202.53125 176.175781 203.804688 176.695312 C 205.078125 177.214844 206.320312 177.796875 207.539062 178.4375 C 208.753906 179.078125 209.9375 179.777344 211.085938 180.535156 C 212.234375 181.289062 213.34375 182.101562 214.410156 182.964844 C 215.480469 183.828125 216.507812 184.742188 217.488281 185.703125 C 218.46875 186.667969 219.398438 187.675781 220.285156 188.730469 C 221.167969 189.785156 221.996094 190.878906 222.773438 192.015625 C 223.550781 193.148438 224.269531 194.316406 224.933594 195.523438 C 225.59375 196.726562 226.199219 197.960938 226.742188 199.222656 C 227.285156 200.488281 227.765625 201.773438 228.183594 203.082031 C 228.601562 204.394531 228.957031 205.71875 229.246094 207.0625 C 229.535156 208.40625 229.757812 209.761719 229.914062 211.128906 C 230.074219 212.496094 230.164062 213.863281 230.1875 215.238281 C 230.214844 216.613281 230.171875 217.988281 230.0625 219.359375 C 229.953125 220.726562 229.78125 222.089844 229.539062 223.445312 C 229.296875 224.796875 228.992188 226.136719 228.621094 227.460938 C 228.25 228.785156 227.816406 230.085938 227.316406 231.367188 C 226.820312 232.648438 226.261719 233.90625 225.644531 235.132812 C 225.023438 236.359375 224.347656 237.554688 223.609375 238.714844 C 222.875 239.878906 222.085938 241 221.242188 242.085938 C 220.394531 243.171875 219.5 244.210938 218.554688 245.210938 Z M 218.554688 245.210938 " fill-opacity="1" fill-rule="evenodd"/><path fill="#383838" d="M 222.742188 204.28125 C 222.546875 204.40625 222.351562 204.402344 222.160156 204.269531 L 211.433594 196.203125 L 213.21875 202.144531 C 213.257812 202.222656 213.261719 202.300781 213.230469 202.382812 C 213.199219 202.464844 213.144531 202.519531 213.0625 202.546875 C 212.867188 202.644531 212.683594 202.628906 212.511719 202.496094 L 207.191406 197.109375 L 206.519531 204.296875 C 206.496094 204.46875 206.398438 204.566406 206.226562 204.59375 C 206.054688 204.644531 205.902344 204.609375 205.765625 204.492188 L 192.71875 188.5625 L 201.417969 209.214844 C 201.453125 209.296875 201.453125 209.378906 201.414062 209.460938 C 201.375 209.542969 201.3125 209.597656 201.226562 209.621094 C 201.019531 209.734375 200.832031 209.703125 200.671875 209.53125 L 190.265625 192.441406 L 188.148438 203.117188 C 188.058594 203.285156 187.921875 203.371094 187.730469 203.371094 C 187.542969 203.371094 187.402344 203.285156 187.316406 203.117188 L 185.199219 192.441406 L 174.789062 209.53125 C 174.628906 209.703125 174.441406 209.734375 174.234375 209.621094 C 174.148438 209.597656 174.085938 209.546875 174.046875 209.460938 C 174.007812 209.378906 174.007812 209.296875 174.046875 209.214844 L 182.742188 188.5625 L 169.699219 204.492188 C 169.5625 204.613281 169.40625 204.644531 169.234375 204.59375 C 169.0625 204.566406 168.96875 204.46875 168.945312 204.300781 L 168.273438 197.113281 L 162.949219 202.5 C 162.777344 202.628906 162.59375 202.644531 162.402344 202.550781 C 162.320312 202.519531 162.261719 202.464844 162.230469 202.382812 C 162.195312 202.304688 162.199219 202.222656 162.238281 202.144531 L 164.027344 196.203125 L 153.300781 204.269531 C 153.109375 204.40625 152.914062 204.40625 152.71875 204.28125 C 152.636719 204.238281 152.589844 204.167969 152.574219 204.074219 C 152.5625 203.984375 152.589844 203.902344 152.65625 203.839844 L 164.640625 191.335938 C 164.796875 191.175781 164.988281 191.089844 165.214844 191.074219 C 165.441406 191.042969 165.660156 191.089844 165.859375 191.207031 L 171.738281 194.753906 L 187.042969 178.757812 C 187.238281 178.578125 187.464844 178.492188 187.730469 178.492188 C 187.996094 178.492188 188.226562 178.578125 188.417969 178.757812 L 203.71875 194.753906 L 209.601562 191.207031 C 209.800781 191.089844 210.015625 191.042969 210.246094 191.074219 C 210.472656 191.085938 210.664062 191.175781 210.820312 191.335938 L 222.800781 203.839844 C 222.871094 203.902344 222.894531 203.980469 222.882812 204.074219 C 222.871094 204.167969 222.824219 204.234375 222.742188 204.28125 Z M 222.742188 204.28125 " fill-opacity="1" fill-rule="evenodd"/><g fill="#ffffff" fill-opacity="1"><g transform="translate(127.887131, 147.668446)"><g><path d="M 11.4375 -14.296875 L 8.984375 -13.703125 L 8.125 -15.8125 C 7.726562 -16.050781 7.257812 -16.203125 6.71875 -16.265625 C 6.1875 -16.335938 5.582031 -16.289062 4.90625 -16.125 C 3.476562 -15.78125 2.503906 -14.992188 1.984375 -13.765625 C 1.460938 -12.546875 1.40625 -11.101562 1.8125 -9.4375 L 1.953125 -8.859375 C 2.359375 -7.191406 3.070312 -5.929688 4.09375 -5.078125 C 5.113281 -4.222656 6.320312 -3.96875 7.71875 -4.3125 C 8.363281 -4.46875 8.929688 -4.703125 9.421875 -5.015625 C 9.921875 -5.335938 10.273438 -5.695312 10.484375 -6.09375 L 10.28125 -8.359375 L 12.734375 -8.953125 L 13.53125 -5.703125 C 13.0625 -4.765625 12.363281 -3.941406 11.4375 -3.234375 C 10.519531 -2.523438 9.429688 -2.019531 8.171875 -1.71875 C 5.960938 -1.1875 3.972656 -1.515625 2.203125 -2.703125 C 0.429688 -3.890625 -0.742188 -5.675781 -1.328125 -8.0625 L -1.46875 -8.609375 C -2.039062 -10.992188 -1.816406 -13.117188 -0.796875 -14.984375 C 0.222656 -16.859375 1.84375 -18.066406 4.0625 -18.609375 C 5.320312 -18.910156 6.519531 -18.957031 7.65625 -18.75 C 8.800781 -18.539062 9.800781 -18.140625 10.65625 -17.546875 Z M 11.4375 -14.296875 "/></g></g></g><g fill="#ffffff" fill-opacity="1"><g transform="translate(145.395707, 143.496026)"><g><path d="M 0.15625 -2.078125 L 1.328125 -2.421875 L 4.15625 -17.71875 L 7.578125 -18.25 L 14.859375 -4.515625 L 16.09375 -4.53125 L 16.40625 -2.53125 L 10.71875 -1.65625 L 10.40625 -3.65625 L 11.53125 -4.03125 L 10.4375 -6.234375 L 5.03125 -5.40625 L 4.65625 -2.96875 L 5.84375 -2.953125 L 6.15625 -0.953125 L 0.46875 -0.078125 Z M 5.4375 -7.96875 L 9.265625 -8.5625 L 6.484375 -14.15625 L 6.421875 -14.140625 Z M 5.4375 -7.96875 "/></g></g></g><g fill="#ffffff" fill-opacity="1"><g transform="translate(164.846665, 140.636425)"><g><path d="M 7 -17.40625 C 8.976562 -17.539062 10.546875 -17.253906 11.703125 -16.546875 C 12.867188 -15.847656 13.503906 -14.726562 13.609375 -13.1875 C 13.660156 -12.414062 13.5 -11.710938 13.125 -11.078125 C 12.757812 -10.441406 12.191406 -9.941406 11.421875 -9.578125 C 12.453125 -9.421875 13.242188 -9.003906 13.796875 -8.328125 C 14.359375 -7.648438 14.671875 -6.847656 14.734375 -5.921875 C 14.835938 -4.316406 14.382812 -3.0625 13.375 -2.15625 C 12.363281 -1.25 10.882812 -0.734375 8.9375 -0.609375 L 0.65625 -0.046875 L 0.515625 -2.078125 L 2.296875 -2.546875 L 1.484375 -14.640625 L -0.34375 -14.859375 L -0.484375 -16.90625 L 1.3125 -17.03125 Z M 5.3125 -7.84375 L 5.640625 -2.984375 L 8.765625 -3.203125 C 9.660156 -3.253906 10.328125 -3.488281 10.765625 -3.90625 C 11.210938 -4.320312 11.410156 -4.914062 11.359375 -5.6875 C 11.296875 -6.507812 11.046875 -7.125 10.609375 -7.53125 C 10.179688 -7.945312 9.539062 -8.128906 8.6875 -8.078125 Z M 5.15625 -10.1875 L 7.59375 -10.359375 C 8.5 -10.410156 9.179688 -10.632812 9.640625 -11.03125 C 10.097656 -11.4375 10.300781 -11.992188 10.25 -12.703125 C 10.195312 -13.484375 9.910156 -14.039062 9.390625 -14.375 C 8.878906 -14.71875 8.140625 -14.859375 7.171875 -14.796875 L 4.84375 -14.640625 Z M 5.15625 -10.1875 "/></g></g></g><g fill="#ffffff" fill-opacity="1"><g transform="translate(183.28683, 139.608809)"><g><path d="M 0.625 -14.84375 L 0.625 -16.890625 L 7.609375 -16.890625 L 7.609375 -14.84375 L 5.8125 -14.5 L 5.828125 -2.375 L 7.625 -2.03125 L 7.625 0 L 0.640625 0 L 0.640625 -2.03125 L 2.453125 -2.375 L 2.4375 -14.5 Z M 0.625 -14.84375 "/></g></g></g><g fill="#ffffff" fill-opacity="1"><g transform="translate(194.283406, 139.517117)"><g><path d="M 19.0625 -15.5625 L 18.921875 -13.53125 L 17.078125 -13.3125 L 16.046875 1.15625 L 12.6875 0.90625 L 6.703125 -10.90625 L 6.625 -10.90625 L 5.984375 -1.953125 L 7.765625 -1.484375 L 7.625 0.546875 L 0.65625 0.046875 L 0.796875 -1.984375 L 2.625 -2.203125 L 3.484375 -14.296875 L 1.71875 -14.765625 L 1.859375 -16.796875 L 3.65625 -16.671875 L 7.015625 -16.421875 L 13.015625 -4.59375 L 13.078125 -4.609375 L 13.71875 -13.5625 L 11.9375 -14.03125 L 12.078125 -16.0625 L 17.25 -15.6875 Z M 19.0625 -15.5625 "/></g></g></g><g fill="#ffffff" fill-opacity="1"><g transform="translate(215.167971, 141.221669)"><g><path d="M 0.640625 0.109375 L 0.953125 -1.890625 L 2.796875 -1.96875 L 4.6875 -13.953125 L 2.953125 -14.546875 L 3.265625 -16.578125 L 5.046875 -16.3125 L 8.375 -15.78125 L 10.171875 -15.5 L 9.859375 -13.46875 L 8.015625 -13.421875 L 6.15625 -1.65625 L 10.875 -0.90625 L 11.375 -2.984375 L 13.921875 -2.578125 L 13.1875 2.078125 Z M 0.640625 0.109375 "/></g></g></g><g fill="#ffffff" fill-opacity="1"><g transform="translate(231.527051, 143.862653)"><g><path d="M 10.09375 -12.84375 L 8.6875 -12.96875 L 9.96875 -6.96875 L 10.046875 -6.953125 L 13.859375 -11.71875 L 12.578125 -12.234375 L 13.0625 -14.21875 L 19.28125 -12.734375 L 18.796875 -10.75 L 17.34375 -10.84375 L 10.859375 -3.484375 L 10.03125 -0.03125 L 11.671875 0.734375 L 11.203125 2.703125 L 4.421875 1.0625 L 4.890625 -0.90625 L 6.75 -0.828125 L 7.625 -4.453125 L 5.21875 -13.765625 L 3.875 -14.34375 L 4.359375 -16.328125 L 10.578125 -14.828125 Z M 10.09375 -12.84375 "/></g></g></g></svg>